<?xml version="1.0" encoding="UTF-8"?>
<svg width="195px" height="195px" viewBox="0 0 195 195" version="1.1" xmlns="http://www.w3.org/2000/svg" xmlns:xlink="http://www.w3.org/1999/xlink">
    <!-- Generator: Sketch 45 (43475) - http://www.bohemiancoding.com/sketch -->
    <title>slim-redux-logo-squared</title>
    <desc>Created with Sketch.</desc>
    <defs></defs>
    <g id="Page-1" stroke="none" stroke-width="1" fill="none" fill-rule="evenodd">
        <g id="slim-redux-logo-squared">
            <g id="slim-redux-logo" transform="translate(47.000000, 0.000000)">
                <g id="background">
                    <rect id="canvas_background" x="0" y="0" width="100" height="195"></rect>
                </g>
                <g id="Layer-1" transform="translate(11.000000, 13.000000)" fill-rule="nonzero">
                    <g id="svg_1" fill="#764ABC">
                        <path d="M54.599998,52.400002 C57.5,52.099999 59.699996,49.599999 59.599998,46.599999 C59.5,43.599999 57,41.200001 54,41.200001 L53.800003,41.200001 C50.700001,41.299999 48.299999,43.900002 48.400001,47 C48.499999,48.5 49.099998,49.799999 49.999999,50.700001 C46.599997,57.400002 41.400001,62.300003 33.599997,66.400002 C28.299998,69.199997 22.799998,70.199997 17.299998,69.5 C12.799998,68.900002 9.299998,66.900002 7.099999,63.599998 C3.899998,58.699996 3.599999,53.400001 6.299998,48.099998 C8.2,44.299999 11.2,41.5 13.099999,40.099998 C12.699999,38.799999 12.099999,36.599998 11.799998,35 C-2.700001,45.5 -1.200001,59.699997 3.199999,66.400002 C6.499999,71.400002 13.2,74.5 20.6,74.5 C22.599998,74.5 24.599998,74.300003 26.599998,73.800003 C39.400001,71.300003 49.099998,63.699997 54.599998,52.400001 L54.599998,52.400002 Z" id="svg_2"></path>
                        <path d="M72.199997,40 C64.599999,31.099998 53.400002,26.200001 40.599999,26.200001 L39.000001,26.200001 C38.099999,24.400002 36.200002,23.200001 34.099999,23.200001 L33.900002,23.200001 C30.8,23.299999 28.400002,25.900002 28.5,29 C28.599998,32 31.099998,34.400002 34.099998,34.400002 L34.299999,34.400002 C36.5,34.3 38.400001,32.900002 39.200001,31 L41,31 C48.599998,31 55.800003,33.200001 62.300003,37.5 C67.300003,40.799999 70.900001,45.099998 72.900001,50.299999 C74.599998,54.5 74.499999,58.599998 72.699996,62.099998 C69.900001,67.400001 65.199996,70.300003 58.999999,70.300003 C54.999999,70.300003 51.2,69.099998 49.2,68.199997 C48.099998,69.199997 46.099998,70.800003 44.7,71.800003 C48.999999,73.800003 53.400001,74.900001 57.599998,74.900001 C67.199996,74.900001 74.300003,69.599998 77,64.300003 C79.900002,58.5 79.699997,48.5 72.199997,40 L72.199997,40 Z" id="svg_3"></path>
                        <path d="M21.400002,54.099998 C21.5,57.099998 24,59.5 27,59.5 L27.200001,59.5 C30.299999,59.400002 32.700001,56.800003 32.599999,53.699997 C32.500001,50.700001 30.000001,48.299999 27.000001,48.299999 L26.8,48.299999 C26.599999,48.299999 26.3,48.299999 26.099999,48.400001 C22.000001,41.599998 20.3,34.2 20.9,26.2 C21.3,20.2 23.3,14.999999 26.8,10.7 C29.700002,6.999999 35.3,5.2 39.099999,5.1 C49.700001,4.899999 54.199997,18.1 54.500001,23.400001 C55.800004,23.7 58.000001,24.400001 59.500001,24.900001 C58.300004,8.7 48.3,0.3 38.700002,0.3 C29.700002,0.3 21.400003,6.799999 18.100002,16.399999 C13.500002,29.2 16.500002,41.499999 22.1,51.199996 C21.6,51.900001 21.300001,52.999999 21.400003,54.099998 L21.400002,54.099998 Z" id="svg_4"></path>
                    </g>
                    <path d="M39,81.5 L39,169.522724" id="svg_5" stroke="#6F4FB6" stroke-width="4.5" fill="#FFFFFF"></path>
                </g>
            </g>
        </g>
    </g>
</svg>