<svg width="100" height="193" xmlns="http://www.w3.org/2000/svg">

 <g>
  <title>background</title>
  <rect fill="none" id="canvas_background" height="195" width="102" y="-1" x="-1"/>
 </g>
 <g>
  <title>Layer 1</title>
  <g id="svg_1" fill="#764ABC">
   <path id="svg_2" d="m65.599998,65.400002c2.900002,-0.300003 5.099998,-2.800003 5,-5.800003c-0.099998,-3 -2.599998,-5.399998 -5.599998,-5.399998l-0.199997,0c-3.100002,0.099998 -5.500004,2.700001 -5.400002,5.799999c0.099998,1.5 0.699997,2.799999 1.599998,3.700001c-3.400002,6.700001 -8.599998,11.600002 -16.400002,15.700001c-5.299999,2.799995 -10.799999,3.799995 -16.299999,3.099998c-4.5,-0.599998 -8,-2.599998 -10.199999,-5.900002c-3.200001,-4.900002 -3.5,-10.199997 -0.800001,-15.5c1.900002,-3.799999 4.900002,-6.599998 6.800001,-8c-0.4,-1.299999 -1,-3.5 -1.300001,-5.099998c-14.499999,10.5 -12.999999,24.699997 -8.599999,31.400002c3.3,5 10.000001,8.099998 17.400001,8.099998c1.999998,0 3.999998,-0.199997 5.999998,-0.699997c12.800003,-2.5 22.5,-10.100006 28,-21.400002z"/>
   <path id="svg_3" d="m83.199997,53c-7.599998,-8.900002 -18.799995,-13.799999 -31.599998,-13.799999l-1.599998,0c-0.900002,-1.799999 -2.799999,-3 -4.900002,-3l-0.199997,0c-3.100002,0.099998 -5.5,2.700001 -5.400002,5.799999c0.099998,3 2.599998,5.400002 5.599998,5.400002l0.200001,0c2.200001,-0.100002 4.100002,-1.5 4.900002,-3.400002l1.799999,0c7.599998,0 14.800003,2.200001 21.300003,6.5c5,3.299999 8.599998,7.599998 10.599998,12.799999c1.699997,4.200001 1.599998,8.299999 -0.200005,11.799999c-2.799995,5.300003 -7.5,8.200005 -13.699997,8.200005c-4,0 -7.799999,-1.200005 -9.799999,-2.100006c-1.100002,1 -3.100002,2.600006 -4.5,3.600006c4.299999,2 8.700001,3.099998 12.899998,3.099998c9.599998,0 16.700005,-5.300003 19.400002,-10.599998c2.900002,-5.800003 2.699997,-15.800003 -4.800003,-24.300003z"/>
   <path id="svg_4" d="m32.400002,67.099998c0.099998,3 2.599998,5.400002 5.599998,5.400002l0.200001,0c3.099998,-0.099998 5.5,-2.699997 5.399998,-5.800003c-0.099998,-2.999996 -2.599998,-5.399998 -5.599998,-5.399998l-0.200001,0c-0.200001,0 -0.5,0 -0.700001,0.100002c-4.099998,-6.800003 -5.799999,-14.200001 -5.199999,-22.200001c0.4,-6 2.4,-11.200001 5.9,-15.5c2.900002,-3.700001 8.5,-5.5 12.299999,-5.6c10.600002,-0.200001 15.099998,13 15.400002,18.300001c1.300003,0.299999 3.5,1 5,1.5c-1.199997,-16.200001 -11.200001,-24.600001 -20.799999,-24.600001c-9,0 -17.299999,6.499999 -20.6,16.099999c-4.6,12.800001 -1.6,25.1 3.999998,34.799997c-0.5,0.700005 -0.799999,1.800003 -0.699997,2.900002z"/>
  </g>
  <line stroke="#6f4fb6" stroke-linecap="undefined" stroke-linejoin="undefined" id="svg_5" y2="182.522724" x2="50" y1="94.5" x1="50" stroke-width="4.5" fill="white"/>
 </g>
</svg>