<?xml version="1.0" encoding="UTF-8"?>
<svg width="700px" height="195px" viewBox="0 0 700 195" version="1.1" xmlns="http://www.w3.org/2000/svg" xmlns:xlink="http://www.w3.org/1999/xlink">
    <!-- Generator: Sketch 45 (43475) - http://www.bohemiancoding.com/sketch -->
    <title>slim-redux-text-logo-dark</title>
    <desc>Created with Sketch.</desc>
    <defs></defs>
    <g id="Page-1" stroke="none" stroke-width="1" fill="none" fill-rule="evenodd">
        <g id="slim-redux-text-logo-dark">
            <g id="slim-redux-logo-copy" transform="translate(14.000000, 13.000000)" fill-rule="nonzero">
                <g id="Layer-1">
                    <g id="svg_1" fill="#764ABC">
                        <path d="M54.599998,52.400002 C57.5,52.099999 59.699996,49.599999 59.599998,46.599999 C59.5,43.599999 57,41.200001 54,41.200001 L53.800003,41.200001 C50.700001,41.299999 48.299999,43.900002 48.400001,47 C48.499999,48.5 49.099998,49.799999 49.999999,50.700001 C46.599997,57.400002 41.400001,62.300003 33.599997,66.400002 C28.299998,69.199997 22.799998,70.199997 17.299998,69.5 C12.799998,68.900002 9.299998,66.900002 7.099999,63.599998 C3.899998,58.699996 3.599999,53.400001 6.299998,48.099998 C8.2,44.299999 11.2,41.5 13.099999,40.099998 C12.699999,38.799999 12.099999,36.599998 11.799998,35 C-2.700001,45.5 -1.200001,59.699997 3.199999,66.400002 C6.499999,71.400002 13.2,74.5 20.6,74.5 C22.599998,74.5 24.599998,74.300003 26.599998,73.800003 C39.400001,71.300003 49.099998,63.699997 54.599998,52.400001 L54.599998,52.400002 Z" id="svg_2"></path>
                        <path d="M72.199997,40 C64.599999,31.099998 53.400002,26.200001 40.599999,26.200001 L39.000001,26.200001 C38.099999,24.400002 36.200002,23.200001 34.099999,23.200001 L33.900002,23.200001 C30.8,23.299999 28.400002,25.900002 28.5,29 C28.599998,32 31.099998,34.400002 34.099998,34.400002 L34.299999,34.400002 C36.5,34.3 38.400001,32.900002 39.200001,31 L41,31 C48.599998,31 55.800003,33.200001 62.300003,37.5 C67.300003,40.799999 70.900001,45.099998 72.900001,50.299999 C74.599998,54.5 74.499999,58.599998 72.699996,62.099998 C69.900001,67.400001 65.199996,70.300003 58.999999,70.300003 C54.999999,70.300003 51.2,69.099998 49.2,68.199997 C48.099998,69.199997 46.099998,70.800003 44.7,71.800003 C48.999999,73.800003 53.400001,74.900001 57.599998,74.900001 C67.199996,74.900001 74.300003,69.599998 77,64.300003 C79.900002,58.5 79.699997,48.5 72.199997,40 L72.199997,40 Z" id="svg_3"></path>
                        <path d="M21.400002,54.099998 C21.5,57.099998 24,59.5 27,59.5 L27.200001,59.5 C30.299999,59.400002 32.700001,56.800003 32.599999,53.699997 C32.500001,50.700001 30.000001,48.299999 27.000001,48.299999 L26.8,48.299999 C26.599999,48.299999 26.3,48.299999 26.099999,48.400001 C22.000001,41.599998 20.3,34.2 20.9,26.2 C21.3,20.2 23.3,14.999999 26.8,10.7 C29.700002,6.999999 35.3,5.2 39.099999,5.1 C49.700001,4.899999 54.199997,18.1 54.500001,23.400001 C55.800004,23.7 58.000001,24.400001 59.500001,24.900001 C58.300004,8.7 48.3,0.3 38.700002,0.3 C29.700002,0.3 21.400003,6.799999 18.100002,16.399999 C13.500002,29.2 16.500002,41.499999 22.1,51.199996 C21.6,51.900001 21.300001,52.999999 21.400003,54.099998 L21.400002,54.099998 Z" id="svg_4"></path>
                    </g>
                    <path d="M39,81.5 L39,169.522724" id="svg_5" stroke="#6F4FB6" stroke-width="4.5" fill="#FFFFFF"></path>
                </g>
            </g>
            <path d="M169.031,70.639 C168.485997,71.5110044 167.913753,72.1649978 167.31425,72.601 C166.714747,73.0370022 165.942671,73.255 164.998,73.255 C164.162329,73.255 163.263088,72.991586 162.30025,72.46475 C161.337412,71.937914 160.247423,71.3475033 159.03025,70.6935 C157.813077,70.0394967 156.423341,69.449086 154.861,68.92225 C153.298659,68.395414 151.518343,68.132 149.52,68.132 C146.068316,68.132 143.497758,68.8677426 141.80825,70.33925 C140.118742,71.8107574 139.274,73.7999875 139.274,76.307 C139.274,77.9056747 139.782662,79.2318281 140.8,80.2855 C141.817338,81.3391719 143.152575,82.2474962 144.80575,83.0105 C146.458925,83.7735038 148.348239,84.4729135 150.47375,85.10875 C152.599261,85.7445865 154.770156,86.4530794 156.9865,87.23425 C159.202844,88.0154206 161.373739,88.9328281 163.49925,89.9865 C165.624761,91.0401719 167.514075,92.3844918 169.16725,94.0195 C170.820425,95.6545082 172.155662,97.6437383 173.173,99.98725 C174.190338,102.330762 174.699,105.15565 174.699,108.462 C174.699,112.131685 174.063173,115.565151 172.7915,118.7625 C171.519827,121.959849 169.675929,124.748405 167.25975,127.12825 C164.843571,129.508095 161.864268,131.379243 158.32175,132.74175 C154.779232,134.104257 150.755356,134.7855 146.25,134.7855 C143.779321,134.7855 141.263263,134.531169 138.70175,134.0225 C136.140237,133.513831 133.660512,132.796255 131.2625,131.86975 C128.864488,130.943245 126.611844,129.844173 124.5045,128.5725 C122.397156,127.300827 120.562341,125.883841 119,124.3215 L124.45,115.7105 C124.849669,115.056497 125.41283,114.529669 126.1395,114.13 C126.86617,113.730331 127.647329,113.5305 128.483,113.5305 C129.573005,113.5305 130.672078,113.875663 131.78025,114.566 C132.888422,115.256337 134.14191,116.019329 135.54075,116.855 C136.93959,117.690671 138.547324,118.453663 140.364,119.144 C142.180676,119.834337 144.324321,120.1795 146.795,120.1795 C150.137683,120.1795 152.735491,119.443757 154.5885,117.97225 C156.441509,116.500743 157.368,114.166349 157.368,110.969 C157.368,109.115991 156.859338,107.608172 155.842,106.4455 C154.824662,105.282828 153.489425,104.320004 151.83625,103.557 C150.183075,102.793996 148.302844,102.121836 146.1955,101.5405 C144.088156,100.959164 141.926344,100.314254 139.71,99.60575 C137.493656,98.8972465 135.331844,98.0252552 133.2245,96.98975 C131.117156,95.9542448 129.236925,94.5917584 127.58375,92.90225 C125.930575,91.2127416 124.595338,89.1054293 123.578,86.58025 C122.560662,84.0550707 122.052,80.9395185 122.052,77.2335 C122.052,74.2541518 122.651494,71.3475142 123.8505,68.5135 C125.049506,65.6794858 126.811655,63.1543444 129.137,60.938 C131.462345,58.7216556 134.314483,56.9504233 137.6935,55.62425 C141.072517,54.2980767 144.941978,53.635 149.302,53.635 C151.736346,53.635 154.107072,53.8257481 156.41425,54.20725 C158.721428,54.5887519 160.91049,55.1519129 162.9815,55.89675 C165.05251,56.6415871 166.987241,57.5317448 168.78575,58.56725 C170.584259,59.6027552 172.191993,60.7744935 173.609,62.0825 L169.031,70.639 Z M201.295,52.327 L201.295,133.9135 L184.4,133.9135 L184.4,52.327 L201.295,52.327 Z M232.36,77.397 L232.36,133.9135 L215.465,133.9135 L215.465,77.397 L232.36,77.397 Z M234.322,61.919 C234.322,63.2633401 234.049503,64.5259108 233.5045,65.70675 C232.959497,66.8875892 232.214671,67.9230789 231.27,68.81325 C230.325329,69.7034211 229.226256,70.411914 227.97275,70.93875 C226.719244,71.465586 225.384007,71.729 223.967,71.729 C222.586326,71.729 221.296506,71.465586 220.0975,70.93875 C218.898494,70.411914 217.835755,69.7034211 216.90925,68.81325 C215.982745,67.9230789 215.256086,66.8875892 214.72925,65.70675 C214.202414,64.5259108 213.939,63.2633401 213.939,61.919 C213.939,60.5383264 214.202414,59.248506 214.72925,58.0495 C215.256086,56.850494 215.982745,55.7968379 216.90925,54.8885 C217.835755,53.9801621 218.898494,53.2716692 220.0975,52.763 C221.296506,52.2543308 222.586326,52 223.967,52 C225.384007,52 226.719244,52.2543308 227.97275,52.763 C229.226256,53.2716692 230.325329,53.9801621 231.27,54.8885 C232.214671,55.7968379 232.959497,56.850494 233.5045,58.0495 C234.049503,59.248506 234.322,60.5383264 234.322,61.919 Z M245.985,133.9135 L245.985,77.397 L256.449,77.397 C257.502672,77.397 258.383746,77.6331643 259.09225,78.1055 C259.800754,78.5778357 260.300332,79.2863286 260.591,80.231 L261.5175,83.283 C262.462171,82.3019951 263.443162,81.4027541 264.4605,80.58525 C265.477838,79.7677459 266.576911,79.059253 267.75775,78.45975 C268.938589,77.860247 270.210243,77.3879184 271.57275,77.04275 C272.935257,76.6975816 274.433992,76.525 276.069,76.525 C279.48435,76.525 282.309239,77.4060745 284.54375,79.16825 C286.778261,80.9304255 288.476828,83.2829853 289.6395,86.226 C290.584171,84.4819913 291.737743,82.9923395 293.10025,81.757 C294.462757,80.5216605 295.934242,79.5225038 297.51475,78.7595 C299.095258,77.9964962 300.766575,77.4333352 302.52875,77.07 C304.290925,76.7066649 306.043991,76.525 307.788,76.525 C311.021683,76.525 313.891987,77.0064119 316.399,77.96925 C318.906013,78.9320881 321.004242,80.3309075 322.69375,82.16575 C324.383258,84.0005925 325.663996,86.2532366 326.536,88.92375 C327.408004,91.5942634 327.844,94.6189831 327.844,97.998 L327.844,133.9135 L310.949,133.9135 L310.949,97.998 C310.949,92.1483041 308.442025,89.2235 303.428,89.2235 C301.138989,89.2235 299.240591,89.9774091 297.73275,91.48525 C296.224909,92.9930909 295.471,95.1639858 295.471,97.998 L295.471,133.9135 L278.576,133.9135 L278.576,97.998 C278.576,94.7643172 277.940173,92.4935065 276.6685,91.1855 C275.396827,89.8774935 273.525679,89.2235 271.055,89.2235 C269.528992,89.2235 268.084757,89.5686632 266.72225,90.259 C265.359743,90.9493368 264.079006,91.8758275 262.88,93.0385 L262.88,133.9135 L245.985,133.9135 Z M379.292,104.538 L379.292,133.9135 L360.871,133.9135 L360.871,54.507 L386.704,54.507 C392.444695,54.507 397.340563,55.0974108 401.39175,56.27825 C405.442937,57.4590892 408.749237,59.1031561 411.31075,61.2105 C413.872263,63.3178439 415.734328,65.8066523 416.897,68.677 C418.059672,71.5473477 418.641,74.6719831 418.641,78.051 C418.641,80.6306796 418.295837,83.0649886 417.6055,85.354 C416.915163,87.6430114 415.888757,89.7594069 414.52625,91.70325 C413.163743,93.6470931 411.492427,95.3819924 409.51225,96.908 C407.532073,98.4340076 405.25218,99.6874951 402.6725,100.6685 C403.90784,101.28617 405.061411,102.049162 406.13325,102.9575 C407.205089,103.865838 408.140663,104.973993 408.94,106.282 L425.835,133.9135 L409.158,133.9135 C406.069651,133.9135 403.85334,132.750845 402.509,130.4255 L389.32,107.372 C388.738664,106.354662 388.057421,105.628002 387.27625,105.192 C386.495079,104.755998 385.396007,104.538 383.979,104.538 L379.292,104.538 Z M379.292,91.8395 L386.704,91.8395 C389.211013,91.8395 391.345575,91.5215865 393.10775,90.88575 C394.869925,90.2499135 396.314161,89.368839 397.4405,88.2425 C398.566839,87.116161 399.384331,85.7990909 399.893,84.29125 C400.401669,82.7834091 400.656,81.1575087 400.656,79.4135 C400.656,75.9254826 399.520595,73.2005098 397.24975,71.2385 C394.978905,69.2764902 391.46369,68.2955 386.704,68.2955 L379.292,68.2955 L379.292,91.8395 Z M457.554,76.525 C461.296352,76.525 464.720734,77.1063275 467.82725,78.269 C470.933766,79.4316725 473.604239,81.1211556 475.83875,83.3375 C478.073261,85.5538444 479.817244,88.2697339 481.07075,91.48525 C482.324256,94.7007661 482.951,98.3431463 482.951,102.4125 C482.951,103.684173 482.896501,104.719663 482.7875,105.519 C482.678499,106.318337 482.478668,106.954164 482.188,107.4265 C481.897332,107.898836 481.506752,108.225832 481.01625,108.4075 C480.525748,108.589168 479.899004,108.68 479.136,108.68 L446.545,108.68 C447.090003,113.403357 448.525155,116.827739 450.8505,118.95325 C453.175845,121.078761 456.173315,122.1415 459.843,122.1415 C461.80501,122.1415 463.494493,121.905336 464.9115,121.433 C466.328507,120.960664 467.591078,120.433836 468.69925,119.8525 C469.807422,119.271164 470.824745,118.744336 471.75125,118.272 C472.677755,117.799664 473.649662,117.5635 474.667,117.5635 C476.01134,117.5635 477.028663,118.053995 477.719,119.035 L482.624,125.0845 C480.879991,127.082843 478.99976,128.708744 476.98325,129.96225 C474.96674,131.215756 472.895761,132.196746 470.77025,132.90525 C468.644739,133.613754 466.519261,134.104249 464.39375,134.37675 C462.268239,134.649251 460.242676,134.7855 458.317,134.7855 C454.356647,134.7855 450.641601,134.14059 447.17175,132.85075 C443.701899,131.56091 440.668096,129.644346 438.07025,127.101 C435.472404,124.557654 433.419591,121.396686 431.91175,117.618 C430.403909,113.839314 429.65,109.443025 429.65,104.429 C429.65,100.650314 430.29491,97.0715169 431.58475,93.6925 C432.87459,90.3134831 434.727571,87.352346 437.14375,84.809 C439.559929,82.265654 442.484733,80.2491741 445.91825,78.7595 C449.351767,77.2698259 453.230312,76.525 457.554,76.525 Z M457.881,88.188 C454.647317,88.188 452.122176,89.1054075 450.3055,90.94025 C448.488824,92.7750925 447.289836,95.4183161 446.7085,98.87 L467.8,98.87 C467.8,97.5256599 467.627418,96.217673 467.28225,94.946 C466.937082,93.674327 466.373921,92.5389217 465.59275,91.53975 C464.811579,90.5405783 463.785173,89.7321698 462.5135,89.1145 C461.241827,88.4968302 459.697676,88.188 457.881,88.188 Z M532.328,133.9135 C531.274328,133.9135 530.393254,133.677336 529.68475,133.205 C528.976246,132.732664 528.476668,132.024171 528.186,131.0795 L526.878,126.774 C525.751661,127.973006 524.57084,129.062995 523.3355,130.044 C522.10016,131.025005 520.764924,131.869746 519.32975,132.57825 C517.894576,133.286754 516.350425,133.831748 514.69725,134.21325 C513.044075,134.594752 511.254676,134.7855 509.329,134.7855 C506.385985,134.7855 503.661013,134.131507 501.154,132.8235 C498.646987,131.515493 496.485176,129.626179 494.6685,127.1555 C492.851824,124.684821 491.425755,121.660101 490.39025,118.08125 C489.354745,114.502399 488.837,110.424023 488.837,105.846 C488.837,101.631312 489.418328,97.7164347 490.581,94.10125 C491.743672,90.4860653 493.387739,87.3614298 495.51325,84.72725 C497.638761,82.0930702 500.191152,80.0311741 503.1705,78.5415 C506.149848,77.0518259 509.437982,76.307 513.035,76.307 C515.941681,76.307 518.40324,76.7339124 520.41975,77.58775 C522.43626,78.4415876 524.261992,79.5588264 525.897,80.9395 L525.897,52.327 L542.792,52.327 L542.792,133.9135 L532.328,133.9135 Z M515.215,121.8145 C516.45034,121.8145 517.567578,121.696418 518.56675,121.46025 C519.565922,121.224082 520.483329,120.888002 521.319,120.452 C522.154671,120.015998 522.944913,119.471003 523.68975,118.817 C524.434587,118.162997 525.17033,117.400004 525.897,116.528 L525.897,92.548 C524.588993,91.1309929 523.199257,90.1409195 521.72775,89.57775 C520.256243,89.0145805 518.703008,88.733 517.068,88.733 C515.505659,88.733 514.070507,89.0418302 512.7625,89.6595 C511.454493,90.2771698 510.319088,91.2672432 509.35625,92.62975 C508.393412,93.9922568 507.639503,95.7634891 507.0945,97.9435 C506.549497,100.123511 506.277,102.757651 506.277,105.846 C506.277,108.825348 506.494998,111.332323 506.931,113.367 C507.367002,115.401677 507.975579,117.045744 508.75675,118.29925 C509.537921,119.552756 510.473495,120.451997 511.5635,120.997 C512.653505,121.542003 513.87066,121.8145 515.215,121.8145 Z M571.677,77.397 L571.677,113.258 C571.677,116.055681 572.312827,118.217492 573.5845,119.7435 C574.856173,121.269508 576.727321,122.0325 579.198,122.0325 C581.051009,122.0325 582.785909,121.651004 584.40275,120.888 C586.019591,120.124996 587.590992,119.053174 589.117,117.6725 L589.117,77.397 L606.012,77.397 L606.012,133.9135 L595.548,133.9135 C593.440656,133.9135 592.060003,132.968843 591.406,131.0795 L590.3705,127.8095 C589.280495,128.863172 588.154172,129.816912 586.9915,130.67075 C585.828828,131.524588 584.584423,132.251247 583.25825,132.85075 C581.932077,133.450253 580.506008,133.922582 578.98,134.26775 C577.453992,134.612918 575.782676,134.7855 573.966,134.7855 C570.877651,134.7855 568.143595,134.249589 565.76375,133.17775 C563.383905,132.105911 561.376508,130.607176 559.7415,128.6815 C558.106492,126.755824 556.871171,124.485013 556.0355,121.869 C555.199829,119.252987 554.782,116.382682 554.782,113.258 L554.782,77.397 L571.677,77.397 Z M632.608,104.7015 L614.405,77.397 L630.646,77.397 C631.845006,77.397 632.726081,77.5514151 633.28925,77.86025 C633.852419,78.1690849 634.351998,78.6868297 634.788,79.4135 L644.8705,96.145 C645.088501,95.4909967 645.360998,94.8551698 645.688,94.2375 C646.015002,93.6198302 646.378331,92.9658368 646.778,92.2755 L653.972,79.686 C654.444336,78.8503292 654.971164,78.2599184 655.5525,77.91475 C656.133836,77.5695816 656.842329,77.397 657.678,77.397 L673.156,77.397 L654.953,103.9385 L673.919,133.9135 L657.678,133.9135 C656.478994,133.9135 655.51617,133.622836 654.7895,133.0415 C654.06283,132.460164 653.463336,131.769837 652.991,130.9705 L642.9085,113.6395 C642.726832,114.25717 642.508835,114.838497 642.2545,115.3835 C642.000165,115.928503 641.727668,116.437164 641.437,116.9095 L633.153,130.9705 C632.716998,131.733504 632.13567,132.414747 631.409,133.01425 C630.68233,133.613753 629.774005,133.9135 628.684,133.9135 L613.642,133.9135 L632.608,104.7015 Z" id="Slim-Redux" fill="#000000"></path>
        </g>
    </g>
</svg>