<?xml version="1.0" encoding="UTF-8"?>
<svg width="760px" height="150px" viewBox="0 0 760 150" version="1.1" xmlns="http://www.w3.org/2000/svg" xmlns:xlink="http://www.w3.org/1999/xlink">
    <!-- Generator: Sketch 45 (43475) - http://www.bohemiancoding.com/sketch -->
    <title>slim-redux-logo-bright</title>
    <desc>Created with Sketch.</desc>
    <defs></defs>
    <g id="Page-1" stroke="none" stroke-width="1" fill="none" fill-rule="evenodd">
        <g id="slim-redux-logo-bright">
            <g id="Group" transform="translate(19.000000, 19.000000)">
                <circle id="Oval" fill="#FF7878" cx="56" cy="56" r="56"></circle>
                <g id="redux-logo-copy" transform="translate(17.000000, 14.000000)" fill-rule="nonzero" fill="#FFFFFF">
                    <path d="M54.6,52.4 C57.5,52.1 59.7,49.6 59.6,46.6 C59.5,43.6 57,41.2 54,41.2 L53.8,41.2 C50.7,41.3 48.3,43.9 48.4,47 C48.5,48.5 49.1,49.8 50,50.7 C46.6,57.4 41.4,62.3 33.6,66.4 C28.3,69.2 22.8,70.2 17.3,69.5 C12.8,68.9 9.3,66.9 7.1,63.6 C3.9,58.7 3.6,53.4 6.3,48.1 C8.2,44.3 11.2,41.5 13.1,40.1 C12.7,38.8 12.1,36.6 11.8,35 C-2.7,45.5 -1.2,59.7 3.2,66.4 C6.5,71.4 13.2,74.5 20.6,74.5 C22.6,74.5 24.6,74.3 26.6,73.8 C39.4,71.3 49.1,63.7 54.6,52.4 L54.6,52.4 Z" id="Shape"></path>
                    <path d="M72.2,40 C64.6,31.1 53.4,26.2 40.6,26.2 L39,26.2 C38.1,24.4 36.2,23.2 34.1,23.2 L33.9,23.2 C30.8,23.3 28.4,25.9 28.5,29 C28.6,32 31.1,34.4 34.1,34.4 L34.3,34.4 C36.5,34.3 38.4,32.9 39.2,31 L41,31 C48.6,31 55.8,33.2 62.3,37.5 C67.3,40.8 70.9,45.1 72.9,50.3 C74.6,54.5 74.5,58.6 72.7,62.1 C69.9,67.4 65.2,70.3 59,70.3 C55,70.3 51.2,69.1 49.2,68.2 C48.1,69.2 46.1,70.8 44.7,71.8 C49,73.8 53.4,74.9 57.6,74.9 C67.2,74.9 74.3,69.6 77,64.3 C79.9,58.5 79.7,48.5 72.2,40 Z" id="Shape"></path>
                    <path d="M21.4,54.1 C21.5,57.1 24,59.5 27,59.5 L27.2,59.5 C30.3,59.4 32.7,56.8 32.6,53.7 C32.5,50.7 30,48.3 27,48.3 L26.8,48.3 C26.6,48.3 26.3,48.3 26.1,48.4 C22,41.6 20.3,34.2 20.9,26.2 C21.3,20.2 23.3,15 26.8,10.7 C29.7,7 35.3,5.2 39.1,5.1 C49.7,4.9 54.2,18.1 54.5,23.4 C55.8,23.7 58,24.4 59.5,24.9 C58.3,8.7 48.3,0.3 38.7,0.3 C29.7,0.3 21.4,6.8 18.1,16.4 C13.5,29.2 16.5,41.5 22.1,51.2 C21.6,51.9 21.3,53 21.4,54.1 L21.4,54.1 Z" id="Shape"></path>
                </g>
            </g>
            <path d="M219.031,51.639 C218.485997,52.5110044 217.913753,53.1649978 217.31425,53.601 C216.714747,54.0370022 215.942671,54.255 214.998,54.255 C214.162329,54.255 213.263088,53.991586 212.30025,53.46475 C211.337412,52.937914 210.247423,52.3475033 209.03025,51.6935 C207.813077,51.0394967 206.423341,50.449086 204.861,49.92225 C203.298659,49.395414 201.518343,49.132 199.52,49.132 C196.068316,49.132 193.497758,49.8677426 191.80825,51.33925 C190.118742,52.8107574 189.274,54.7999875 189.274,57.307 C189.274,58.9056747 189.782662,60.2318281 190.8,61.2855 C191.817338,62.3391719 193.152575,63.2474962 194.80575,64.0105 C196.458925,64.7735038 198.348239,65.4729135 200.47375,66.10875 C202.599261,66.7445865 204.770156,67.4530794 206.9865,68.23425 C209.202844,69.0154206 211.373739,69.9328281 213.49925,70.9865 C215.624761,72.0401719 217.514075,73.3844918 219.16725,75.0195 C220.820425,76.6545082 222.155662,78.6437383 223.173,80.98725 C224.190338,83.3307617 224.699,86.1556501 224.699,89.462 C224.699,93.131685 224.063173,96.5651507 222.7915,99.7625 C221.519827,102.959849 219.675929,105.748405 217.25975,108.12825 C214.843571,110.508095 211.864268,112.379243 208.32175,113.74175 C204.779232,115.104257 200.755356,115.7855 196.25,115.7855 C193.779321,115.7855 191.263263,115.531169 188.70175,115.0225 C186.140237,114.513831 183.660512,113.796255 181.2625,112.86975 C178.864488,111.943245 176.611844,110.844173 174.5045,109.5725 C172.397156,108.300827 170.562341,106.883841 169,105.3215 L174.45,96.7105 C174.849669,96.0564967 175.41283,95.5296687 176.1395,95.13 C176.86617,94.7303313 177.647329,94.5305 178.483,94.5305 C179.573005,94.5305 180.672078,94.8756632 181.78025,95.566 C182.888422,96.2563368 184.14191,97.0193292 185.54075,97.855 C186.93959,98.6906708 188.547324,99.4536632 190.364,100.144 C192.180676,100.834337 194.324321,101.1795 196.795,101.1795 C200.137683,101.1795 202.735491,100.443757 204.5885,98.97225 C206.441509,97.5007426 207.368,95.1663493 207.368,91.969 C207.368,90.1159907 206.859338,88.6081725 205.842,87.4455 C204.824662,86.2828275 203.489425,85.3200038 201.83625,84.557 C200.183075,83.7939962 198.302844,83.1218362 196.1955,82.5405 C194.088156,81.9591638 191.926344,81.3142535 189.71,80.60575 C187.493656,79.8972465 185.331844,79.0252552 183.2245,77.98975 C181.117156,76.9542448 179.236925,75.5917584 177.58375,73.90225 C175.930575,72.2127416 174.595338,70.1054293 173.578,67.58025 C172.560662,65.0550707 172.052,61.9395185 172.052,58.2335 C172.052,55.2541518 172.651494,52.3475142 173.8505,49.5135 C175.049506,46.6794858 176.811655,44.1543444 179.137,41.938 C181.462345,39.7216556 184.314483,37.9504233 187.6935,36.62425 C191.072517,35.2980767 194.941978,34.635 199.302,34.635 C201.736346,34.635 204.107072,34.8257481 206.41425,35.20725 C208.721428,35.5887519 210.91049,36.1519129 212.9815,36.89675 C215.05251,37.6415871 216.987241,38.5317448 218.78575,39.56725 C220.584259,40.6027552 222.191993,41.7744935 223.609,43.0825 L219.031,51.639 Z M251.295,33.327 L251.295,114.9135 L234.4,114.9135 L234.4,33.327 L251.295,33.327 Z M282.36,58.397 L282.36,114.9135 L265.465,114.9135 L265.465,58.397 L282.36,58.397 Z M284.322,42.919 C284.322,44.2633401 284.049503,45.5259108 283.5045,46.70675 C282.959497,47.8875892 282.214671,48.9230789 281.27,49.81325 C280.325329,50.7034211 279.226256,51.411914 277.97275,51.93875 C276.719244,52.465586 275.384007,52.729 273.967,52.729 C272.586326,52.729 271.296506,52.465586 270.0975,51.93875 C268.898494,51.411914 267.835755,50.7034211 266.90925,49.81325 C265.982745,48.9230789 265.256086,47.8875892 264.72925,46.70675 C264.202414,45.5259108 263.939,44.2633401 263.939,42.919 C263.939,41.5383264 264.202414,40.248506 264.72925,39.0495 C265.256086,37.850494 265.982745,36.7968379 266.90925,35.8885 C267.835755,34.9801621 268.898494,34.2716692 270.0975,33.763 C271.296506,33.2543308 272.586326,33 273.967,33 C275.384007,33 276.719244,33.2543308 277.97275,33.763 C279.226256,34.2716692 280.325329,34.9801621 281.27,35.8885 C282.214671,36.7968379 282.959497,37.850494 283.5045,39.0495 C284.049503,40.248506 284.322,41.5383264 284.322,42.919 Z M295.985,114.9135 L295.985,58.397 L306.449,58.397 C307.502672,58.397 308.383746,58.6331643 309.09225,59.1055 C309.800754,59.5778357 310.300332,60.2863286 310.591,61.231 L311.5175,64.283 C312.462171,63.3019951 313.443162,62.4027541 314.4605,61.58525 C315.477838,60.7677459 316.576911,60.059253 317.75775,59.45975 C318.938589,58.860247 320.210243,58.3879184 321.57275,58.04275 C322.935257,57.6975816 324.433992,57.525 326.069,57.525 C329.48435,57.525 332.309239,58.4060745 334.54375,60.16825 C336.778261,61.9304255 338.476828,64.2829853 339.6395,67.226 C340.584171,65.4819913 341.737743,63.9923395 343.10025,62.757 C344.462757,61.5216605 345.934242,60.5225038 347.51475,59.7595 C349.095258,58.9964962 350.766575,58.4333352 352.52875,58.07 C354.290925,57.7066649 356.043991,57.525 357.788,57.525 C361.021683,57.525 363.891987,58.0064119 366.399,58.96925 C368.906013,59.9320881 371.004242,61.3309075 372.69375,63.16575 C374.383258,65.0005925 375.663996,67.2532366 376.536,69.92375 C377.408004,72.5942634 377.844,75.6189831 377.844,78.998 L377.844,114.9135 L360.949,114.9135 L360.949,78.998 C360.949,73.1483041 358.442025,70.2235 353.428,70.2235 C351.138989,70.2235 349.240591,70.9774091 347.73275,72.48525 C346.224909,73.9930909 345.471,76.1639858 345.471,78.998 L345.471,114.9135 L328.576,114.9135 L328.576,78.998 C328.576,75.7643172 327.940173,73.4935065 326.6685,72.1855 C325.396827,70.8774935 323.525679,70.2235 321.055,70.2235 C319.528992,70.2235 318.084757,70.5686632 316.72225,71.259 C315.359743,71.9493368 314.079006,72.8758275 312.88,74.0385 L312.88,114.9135 L295.985,114.9135 Z M429.292,85.538 L429.292,114.9135 L410.871,114.9135 L410.871,35.507 L436.704,35.507 C442.444695,35.507 447.340563,36.0974108 451.39175,37.27825 C455.442937,38.4590892 458.749237,40.1031561 461.31075,42.2105 C463.872263,44.3178439 465.734328,46.8066523 466.897,49.677 C468.059672,52.5473477 468.641,55.6719831 468.641,59.051 C468.641,61.6306796 468.295837,64.0649886 467.6055,66.354 C466.915163,68.6430114 465.888757,70.7594069 464.52625,72.70325 C463.163743,74.6470931 461.492427,76.3819924 459.51225,77.908 C457.532073,79.4340076 455.25218,80.6874951 452.6725,81.6685 C453.90784,82.2861698 455.061411,83.0491621 456.13325,83.9575 C457.205089,84.8658379 458.140663,85.9739935 458.94,87.282 L475.835,114.9135 L459.158,114.9135 C456.069651,114.9135 453.85334,113.750845 452.509,111.4255 L439.32,88.372 C438.738664,87.3546616 438.057421,86.6280022 437.27625,86.192 C436.495079,85.7559978 435.396007,85.538 433.979,85.538 L429.292,85.538 Z M429.292,72.8395 L436.704,72.8395 C439.211013,72.8395 441.345575,72.5215865 443.10775,71.88575 C444.869925,71.2499135 446.314161,70.368839 447.4405,69.2425 C448.566839,68.116161 449.384331,66.7990909 449.893,65.29125 C450.401669,63.7834091 450.656,62.1575087 450.656,60.4135 C450.656,56.9254826 449.520595,54.2005098 447.24975,52.2385 C444.978905,50.2764902 441.46369,49.2955 436.704,49.2955 L429.292,49.2955 L429.292,72.8395 Z M507.554,57.525 C511.296352,57.525 514.720734,58.1063275 517.82725,59.269 C520.933766,60.4316725 523.604239,62.1211556 525.83875,64.3375 C528.073261,66.5538444 529.817244,69.2697339 531.07075,72.48525 C532.324256,75.7007661 532.951,79.3431463 532.951,83.4125 C532.951,84.684173 532.896501,85.7196627 532.7875,86.519 C532.678499,87.3183373 532.478668,87.9541643 532.188,88.4265 C531.897332,88.8988357 531.506752,89.2258324 531.01625,89.4075 C530.525748,89.5891676 529.899004,89.68 529.136,89.68 L496.545,89.68 C497.090003,94.403357 498.525155,97.8277394 500.8505,99.95325 C503.175845,102.078761 506.173315,103.1415 509.843,103.1415 C511.80501,103.1415 513.494493,102.905336 514.9115,102.433 C516.328507,101.960664 517.591078,101.433836 518.69925,100.8525 C519.807422,100.271164 520.824745,99.7443357 521.75125,99.272 C522.677755,98.7996643 523.649662,98.5635 524.667,98.5635 C526.01134,98.5635 527.028663,99.0539951 527.719,100.035 L532.624,106.0845 C530.879991,108.082843 528.99976,109.708744 526.98325,110.96225 C524.96674,112.215756 522.895761,113.196746 520.77025,113.90525 C518.644739,114.613754 516.519261,115.104249 514.39375,115.37675 C512.268239,115.649251 510.242676,115.7855 508.317,115.7855 C504.356647,115.7855 500.641601,115.14059 497.17175,113.85075 C493.701899,112.56091 490.668096,110.644346 488.07025,108.101 C485.472404,105.557654 483.419591,102.396686 481.91175,98.618 C480.403909,94.8393144 479.65,90.4430251 479.65,85.429 C479.65,81.6503144 480.29491,78.0715169 481.58475,74.6925 C482.87459,71.3134831 484.727571,68.352346 487.14375,65.809 C489.559929,63.265654 492.484733,61.2491741 495.91825,59.7595 C499.351767,58.2698259 503.230312,57.525 507.554,57.525 Z M507.881,69.188 C504.647317,69.188 502.122176,70.1054075 500.3055,71.94025 C498.488824,73.7750925 497.289836,76.4183161 496.7085,79.87 L517.8,79.87 C517.8,78.5256599 517.627418,77.217673 517.28225,75.946 C516.937082,74.674327 516.373921,73.5389217 515.59275,72.53975 C514.811579,71.5405783 513.785173,70.7321698 512.5135,70.1145 C511.241827,69.4968302 509.697676,69.188 507.881,69.188 Z M582.328,114.9135 C581.274328,114.9135 580.393254,114.677336 579.68475,114.205 C578.976246,113.732664 578.476668,113.024171 578.186,112.0795 L576.878,107.774 C575.751661,108.973006 574.57084,110.062995 573.3355,111.044 C572.10016,112.025005 570.764924,112.869746 569.32975,113.57825 C567.894576,114.286754 566.350425,114.831748 564.69725,115.21325 C563.044075,115.594752 561.254676,115.7855 559.329,115.7855 C556.385985,115.7855 553.661013,115.131507 551.154,113.8235 C548.646987,112.515493 546.485176,110.626179 544.6685,108.1555 C542.851824,105.684821 541.425755,102.660101 540.39025,99.08125 C539.354745,95.5023988 538.837,91.4240229 538.837,86.846 C538.837,82.6313123 539.418328,78.7164347 540.581,75.10125 C541.743672,71.4860653 543.387739,68.3614298 545.51325,65.72725 C547.638761,63.0930702 550.191152,61.0311741 553.1705,59.5415 C556.149848,58.0518259 559.437982,57.307 563.035,57.307 C565.941681,57.307 568.40324,57.7339124 570.41975,58.58775 C572.43626,59.4415876 574.261992,60.5588264 575.897,61.9395 L575.897,33.327 L592.792,33.327 L592.792,114.9135 L582.328,114.9135 Z M565.215,102.8145 C566.45034,102.8145 567.567578,102.696418 568.56675,102.46025 C569.565922,102.224082 570.483329,101.888002 571.319,101.452 C572.154671,101.015998 572.944913,100.471003 573.68975,99.817 C574.434587,99.1629967 575.17033,98.4000044 575.897,97.528 L575.897,73.548 C574.588993,72.1309929 573.199257,71.1409195 571.72775,70.57775 C570.256243,70.0145805 568.703008,69.733 567.068,69.733 C565.505659,69.733 564.070507,70.0418302 562.7625,70.6595 C561.454493,71.2771698 560.319088,72.2672432 559.35625,73.62975 C558.393412,74.9922568 557.639503,76.7634891 557.0945,78.9435 C556.549497,81.1235109 556.277,83.7576512 556.277,86.846 C556.277,89.8253482 556.494998,92.3323232 556.931,94.367 C557.367002,96.4016768 557.975579,98.0457437 558.75675,99.29925 C559.537921,100.552756 560.473495,101.451997 561.5635,101.997 C562.653505,102.542003 563.87066,102.8145 565.215,102.8145 Z M621.677,58.397 L621.677,94.258 C621.677,97.0556807 622.312827,99.2174924 623.5845,100.7435 C624.856173,102.269508 626.727321,103.0325 629.198,103.0325 C631.051009,103.0325 632.785909,102.651004 634.40275,101.888 C636.019591,101.124996 637.590992,100.053174 639.117,98.6725 L639.117,58.397 L656.012,58.397 L656.012,114.9135 L645.548,114.9135 C643.440656,114.9135 642.060003,113.968843 641.406,112.0795 L640.3705,108.8095 C639.280495,109.863172 638.154172,110.816912 636.9915,111.67075 C635.828828,112.524588 634.584423,113.251247 633.25825,113.85075 C631.932077,114.450253 630.506008,114.922582 628.98,115.26775 C627.453992,115.612918 625.782676,115.7855 623.966,115.7855 C620.877651,115.7855 618.143595,115.249589 615.76375,114.17775 C613.383905,113.105911 611.376508,111.607176 609.7415,109.6815 C608.106492,107.755824 606.871171,105.485013 606.0355,102.869 C605.199829,100.252987 604.782,97.3826823 604.782,94.258 L604.782,58.397 L621.677,58.397 Z M682.608,85.7015 L664.405,58.397 L680.646,58.397 C681.845006,58.397 682.726081,58.5514151 683.28925,58.86025 C683.852419,59.1690849 684.351998,59.6868297 684.788,60.4135 L694.8705,77.145 C695.088501,76.4909967 695.360998,75.8551698 695.688,75.2375 C696.015002,74.6198302 696.378331,73.9658368 696.778,73.2755 L703.972,60.686 C704.444336,59.8503292 704.971164,59.2599184 705.5525,58.91475 C706.133836,58.5695816 706.842329,58.397 707.678,58.397 L723.156,58.397 L704.953,84.9385 L723.919,114.9135 L707.678,114.9135 C706.478994,114.9135 705.51617,114.622836 704.7895,114.0415 C704.06283,113.460164 703.463336,112.769837 702.991,111.9705 L692.9085,94.6395 C692.726832,95.2571698 692.508835,95.8384973 692.2545,96.3835 C692.000165,96.9285027 691.727668,97.4371643 691.437,97.9095 L683.153,111.9705 C682.716998,112.733504 682.13567,113.414747 681.409,114.01425 C680.68233,114.613753 679.774005,114.9135 678.684,114.9135 L663.642,114.9135 L682.608,85.7015 Z" id="Slim-Redux" fill="#FFFFFF"></path>
        </g>
    </g>
</svg>