<?xml version="1.0" encoding="UTF-8"?>
<svg width="124px" height="124px" viewBox="0 0 124 124" version="1.1" xmlns="http://www.w3.org/2000/svg" xmlns:xlink="http://www.w3.org/1999/xlink">
    <!-- Generator: Sketch 45 (43475) - http://www.bohemiancoding.com/sketch -->
    <title>slim-redux-logo</title>
    <desc>Created with Sketch.</desc>
    <defs></defs>
    <g id="Page-1" stroke="none" stroke-width="1" fill="none" fill-rule="evenodd">
        <g id="slim-redux-logo">
            <g id="Group" transform="translate(6.000000, 6.000000)">
                <circle id="Oval" fill="#FF7878" cx="56" cy="56" r="56"></circle>
                <g id="redux-logo-copy" transform="translate(17.000000, 14.000000)" fill-rule="nonzero" fill="#FFFFFF">
                    <path d="M54.6,52.4 C57.5,52.1 59.7,49.6 59.6,46.6 C59.5,43.6 57,41.2 54,41.2 L53.8,41.2 C50.7,41.3 48.3,43.9 48.4,47 C48.5,48.5 49.1,49.8 50,50.7 C46.6,57.4 41.4,62.3 33.6,66.4 C28.3,69.2 22.8,70.2 17.3,69.5 C12.8,68.9 9.3,66.9 7.1,63.6 C3.9,58.7 3.6,53.4 6.3,48.1 C8.2,44.3 11.2,41.5 13.1,40.1 C12.7,38.8 12.1,36.6 11.8,35 C-2.7,45.5 -1.2,59.7 3.2,66.4 C6.5,71.4 13.2,74.5 20.6,74.5 C22.6,74.5 24.6,74.3 26.6,73.8 C39.4,71.3 49.1,63.7 54.6,52.4 L54.6,52.4 Z" id="Shape"></path>
                    <path d="M72.2,40 C64.6,31.1 53.4,26.2 40.6,26.2 L39,26.2 C38.1,24.4 36.2,23.2 34.1,23.2 L33.9,23.2 C30.8,23.3 28.4,25.9 28.5,29 C28.6,32 31.1,34.4 34.1,34.4 L34.3,34.4 C36.5,34.3 38.4,32.9 39.2,31 L41,31 C48.6,31 55.8,33.2 62.3,37.5 C67.3,40.8 70.9,45.1 72.9,50.3 C74.6,54.5 74.5,58.6 72.7,62.1 C69.9,67.4 65.2,70.3 59,70.3 C55,70.3 51.2,69.1 49.2,68.2 C48.1,69.2 46.1,70.8 44.7,71.8 C49,73.8 53.4,74.9 57.6,74.9 C67.2,74.9 74.3,69.6 77,64.3 C79.9,58.5 79.7,48.5 72.2,40 Z" id="Shape"></path>
                    <path d="M21.4,54.1 C21.5,57.1 24,59.5 27,59.5 L27.2,59.5 C30.3,59.4 32.7,56.8 32.6,53.7 C32.5,50.7 30,48.3 27,48.3 L26.8,48.3 C26.6,48.3 26.3,48.3 26.1,48.4 C22,41.6 20.3,34.2 20.9,26.2 C21.3,20.2 23.3,15 26.8,10.7 C29.7,7 35.3,5.2 39.1,5.1 C49.7,4.9 54.2,18.1 54.5,23.4 C55.8,23.7 58,24.4 59.5,24.9 C58.3,8.7 48.3,0.3 38.7,0.3 C29.7,0.3 21.4,6.8 18.1,16.4 C13.5,29.2 16.5,41.5 22.1,51.2 C21.6,51.9 21.3,53 21.4,54.1 L21.4,54.1 Z" id="Shape"></path>
                </g>
            </g>
        </g>
    </g>
</svg>